<svg width="65" height="65" viewBox="0 0 65 65" fill="none" xmlns="http://www.w3.org/2000/svg">
<path d="M54.8439 27.0833C54.8439 26.6387 54.7563 26.1985 54.5862 25.7877C54.416 25.377 54.1667 25.0038 53.8523 24.6894C53.5379 24.3751 53.1647 24.1257 52.754 23.9556C52.3433 23.7854 51.903 23.6979 51.4585 23.6979C51.0139 23.6979 50.5736 23.7854 50.1629 23.9556C49.7522 24.1257 49.379 24.3751 49.0646 24.6894C48.7502 25.0038 48.5009 25.377 48.3307 25.7877C48.1606 26.1985 48.073 26.6387 48.073 27.0833H54.8439ZM16.9272 27.0833C16.9272 26.1854 16.5705 25.3243 15.9356 24.6894C15.3007 24.0545 14.4397 23.6979 13.5418 23.6979C12.6439 23.6979 11.7828 24.0545 11.1479 24.6894C10.513 25.3243 10.1564 26.1854 10.1564 27.0833H16.9272ZM54.4809 34.8941C55.1159 35.5291 55.9771 35.8858 56.8751 35.8858C57.7731 35.8858 58.6343 35.5291 59.2693 34.8941C59.9043 34.2591 60.261 33.3979 60.261 32.4999C60.261 31.602 59.9043 30.7407 59.2693 30.1058L54.4809 34.8941ZM32.5001 8.12494L34.8943 5.73077C34.5799 5.41631 34.2067 5.16687 33.7959 4.99668C33.3851 4.82649 32.9448 4.73889 32.5001 4.73889C32.0555 4.73889 31.6152 4.82649 31.2044 4.99668C30.7936 5.16687 30.4203 5.41631 30.106 5.73077L32.5001 8.12494ZM5.73095 30.1058C5.09598 30.7407 4.73926 31.602 4.73926 32.4999C4.73926 33.3979 5.09598 34.2591 5.73095 34.8941C6.36593 35.5291 7.22713 35.8858 8.12512 35.8858C9.02311 35.8858 9.88432 35.5291 10.5193 34.8941L5.73095 30.1058ZM18.9585 60.2604H46.0418V53.4895H18.9585V60.2604ZM54.8439 51.4583V27.0833H48.073V51.4583H54.8439ZM16.9272 51.4583V27.0833H10.1564V51.4583H16.9272ZM59.2693 30.1058L34.8943 5.73077L30.106 10.5191L54.4809 34.8941L59.2693 30.1058ZM30.106 5.73077L5.73095 30.1058L10.5193 34.8941L34.8943 10.5191L30.106 5.73077ZM46.0418 60.2604C48.3762 60.2604 50.6151 59.333 52.2658 57.6823C53.9165 56.0316 54.8439 53.7927 54.8439 51.4583H48.073C48.073 51.997 47.859 52.5136 47.4781 52.8946C47.0972 53.2755 46.5805 53.4895 46.0418 53.4895V60.2604ZM18.9585 53.4895C18.4197 53.4895 17.9031 53.2755 17.5221 52.8946C17.1412 52.5136 16.9272 51.997 16.9272 51.4583H10.1564C10.1564 53.7927 11.0837 56.0316 12.7344 57.6823C14.3852 59.333 16.624 60.2604 18.9585 60.2604V53.4895Z" fill="black"/>
</svg>
