<svg width="62" height="62" viewBox="0 0 62 62" fill="none" xmlns="http://www.w3.org/2000/svg">
<path fill-rule="evenodd" clip-rule="evenodd" d="M15.5 7.75C14.4723 7.75 13.4867 8.15826 12.76 8.88496C12.0333 9.61166 11.625 10.5973 11.625 11.625V50.375C11.625 51.4027 12.0333 52.3883 12.76 53.115C13.4867 53.8417 14.4723 54.25 15.5 54.25H46.5C47.5277 54.25 48.5133 53.8417 49.24 53.115C49.9667 52.3883 50.375 51.4027 50.375 50.375V11.625C50.375 10.5973 49.9667 9.61166 49.24 8.88496C48.5133 8.15826 47.5277 7.75 46.5 7.75H15.5ZM19.375 15.5V23.25H42.625V15.5H19.375ZM23.25 27.125V31H19.375V27.125H23.25ZM32.9375 27.125V31H29.0625V27.125H32.9375ZM42.625 31V27.125H38.75V31H42.625ZM23.25 34.875V38.75H19.375V34.875H23.25ZM32.9375 38.75V34.875H29.0625V38.75H32.9375ZM42.625 34.875V46.5H38.75V34.875H42.625ZM23.25 46.5V42.625H19.375V46.5H23.25ZM29.0625 46.5V42.625H32.9375V46.5H29.0625Z" fill="#222121"/>
</svg>
