<svg width="49" height="49" viewBox="0 0 49 49" fill="none" xmlns="http://www.w3.org/2000/svg">
<g filter="url(#filter0_d_15_233)">
<rect x="3.23462" width="42.0496" height="42.0496" rx="3.23459" fill="#EBEDD4" shape-rendering="crispEdges"/>
<path d="M35.6881 7.40419C28.0926 6.55489 20.4262 6.55489 12.8307 7.40419C12.4015 7.45191 11.9931 7.61426 11.6483 7.87419C11.3036 8.13413 11.0351 8.48208 10.8711 8.88153C10.7071 9.28097 10.6537 9.71719 10.7164 10.1444C10.7791 10.5716 10.9557 10.9741 11.2275 11.3096L17.8311 19.4724C19.7227 21.8109 20.7549 24.7274 20.7553 27.7352V33.2402C20.7551 33.4466 20.8036 33.6501 20.8967 33.8342C20.9899 34.0184 21.1251 34.178 21.2914 34.3002L26.1464 37.8604C26.2978 37.9715 26.4771 38.0384 26.6644 38.0537C26.8516 38.0691 27.0394 38.0322 27.2069 37.9473C27.3744 37.8623 27.5151 37.7326 27.6134 37.5725C27.7117 37.4124 27.7636 37.2283 27.7635 37.0404V27.7352C27.764 24.7266 28.7968 21.8093 30.6895 19.4707L37.2913 11.306C37.5627 10.9706 37.7388 10.5683 37.8013 10.1413C37.8637 9.71433 37.8102 9.27843 37.6462 8.87928C37.4823 8.48013 37.214 8.13241 36.8695 7.87258C36.525 7.61275 36.117 7.45211 35.6881 7.40419Z" fill="#74A23C"/>
</g>
<defs>
<filter id="filter0_d_15_233" x="3.17097e-05" y="0" width="48.5189" height="48.5189" filterUnits="userSpaceOnUse" color-interpolation-filters="sRGB">
<feFlood flood-opacity="0" result="BackgroundImageFix"/>
<feColorMatrix in="SourceAlpha" type="matrix" values="0 0 0 0 0 0 0 0 0 0 0 0 0 0 0 0 0 0 127 0" result="hardAlpha"/>
<feOffset dy="3.23459"/>
<feGaussianBlur stdDeviation="1.61729"/>
<feComposite in2="hardAlpha" operator="out"/>
<feColorMatrix type="matrix" values="0 0 0 0 0 0 0 0 0 0 0 0 0 0 0 0 0 0 0.25 0"/>
<feBlend mode="normal" in2="BackgroundImageFix" result="effect1_dropShadow_15_233"/>
<feBlend mode="normal" in="SourceGraphic" in2="effect1_dropShadow_15_233" result="shape"/>
</filter>
</defs>
</svg>
