<svg width="43" height="43" viewBox="0 0 43 43" fill="none" xmlns="http://www.w3.org/2000/svg">
<path d="M36.9599 28.6647C36.8204 28.4967 36.6836 28.3288 36.5492 28.1667C34.7015 25.9319 33.5837 24.5831 33.5837 18.2565C33.5837 14.9811 32.8001 12.2936 31.2556 10.278C30.1168 8.78896 28.5774 7.65938 26.5483 6.82457C26.5222 6.81005 26.4989 6.79099 26.4795 6.7683C25.7496 4.32436 23.7525 2.6875 21.5 2.6875C19.2476 2.6875 17.2512 4.32436 16.5214 6.76578C16.502 6.78767 16.479 6.80613 16.4534 6.82037C11.7184 8.76965 9.41718 12.5095 9.41718 18.254C9.41718 24.5831 8.30103 25.9319 6.4517 28.1642C6.31732 28.3263 6.18043 28.4909 6.04101 28.6622C5.68089 29.0965 5.45272 29.6249 5.38351 30.1848C5.3143 30.7447 5.40695 31.3128 5.65048 31.8217C6.16867 32.9135 7.27306 33.5912 8.53367 33.5912H34.4756C35.7303 33.5912 36.8272 32.9143 37.347 31.8276C37.5916 31.3185 37.6851 30.75 37.6165 30.1894C37.5479 29.6289 37.32 29.0997 36.9599 28.6647ZM21.5 40.3125C22.7136 40.3115 23.9043 39.9821 24.9459 39.3591C25.9874 38.7362 26.8409 37.843 27.4159 36.7742C27.443 36.723 27.4563 36.6657 27.4547 36.6077C27.4531 36.5498 27.4365 36.4933 27.4066 36.4437C27.3767 36.3941 27.3344 36.3531 27.2839 36.3246C27.2335 36.2961 27.1765 36.2812 27.1186 36.2812H15.8831C15.8251 36.281 15.7681 36.2959 15.7175 36.3243C15.6669 36.3527 15.6245 36.3937 15.5945 36.4433C15.5645 36.493 15.5478 36.5495 15.5462 36.6075C15.5445 36.6655 15.5579 36.723 15.585 36.7742C16.1599 37.8429 17.0133 38.736 18.0546 39.3589C19.096 39.9819 20.2866 40.3114 21.5 40.3125Z" fill="black"/>
</svg>
