<svg width="53" height="68" viewBox="0 0 53 68" fill="none" xmlns="http://www.w3.org/2000/svg">
<path d="M25.9062 2.98828L46.625 13.3477V39.2461L25.9062 49.5806L5.1875 39.2461V13.3477L25.9062 2.98828ZM41.4702 14.3438L25.9062 6.57422L19.9048 9.5625L35.3691 17.3818L41.4702 14.3438ZM25.9062 22.1133L31.833 19.1748L16.3438 11.3555L10.3423 14.3438L25.9062 22.1133ZM8.375 16.9336V37.2539L24.3125 45.2227V24.9023L8.375 16.9336ZM27.5 45.2227L43.4375 37.2539V16.9336L27.5 24.9023V45.2227Z" fill="black"/>
<path d="M3.75439 62.1479H1.74023V60.9878H3.75439C4.08382 60.9878 4.35059 60.9341 4.55469 60.8267C4.76237 60.7157 4.91455 60.5653 5.01123 60.3755C5.10791 60.1821 5.15625 59.9619 5.15625 59.7148C5.15625 59.4749 5.10791 59.2511 5.01123 59.0435C4.91455 58.8358 4.76237 58.6675 4.55469 58.5386C4.35059 58.4097 4.08382 58.3452 3.75439 58.3452H2.22363V65H0.746582V57.1797H3.75439C4.36312 57.1797 4.88232 57.2889 5.31201 57.5073C5.74528 57.7222 6.07471 58.0212 6.30029 58.4043C6.52946 58.7839 6.64404 59.2171 6.64404 59.7041C6.64404 60.209 6.52946 60.644 6.30029 61.0093C6.07471 61.3745 5.74528 61.6556 5.31201 61.8525C4.88232 62.0495 4.36312 62.1479 3.75439 62.1479ZM7.8042 57.1797H10.6455C11.2399 57.1797 11.7502 57.2692 12.1763 57.4482C12.6024 57.6273 12.93 57.8923 13.1592 58.2432C13.3883 58.5941 13.5029 59.0256 13.5029 59.5376C13.5029 59.9422 13.4313 60.2931 13.2881 60.5903C13.1449 60.8875 12.9425 61.1364 12.6812 61.3369C12.4233 61.5374 12.119 61.695 11.7681 61.8096L11.3062 62.0459H8.79785L8.78711 60.8804H10.6616C10.966 60.8804 11.2184 60.8267 11.4189 60.7192C11.6195 60.6118 11.7699 60.4632 11.8701 60.2734C11.974 60.0837 12.0259 59.867 12.0259 59.6235C12.0259 59.3621 11.9757 59.1366 11.8755 58.9468C11.7752 58.7534 11.623 58.6048 11.4189 58.501C11.2148 58.3971 10.957 58.3452 10.6455 58.3452H9.28125V65H7.8042V57.1797ZM12.2192 65L10.4092 61.498L11.9722 61.4927L13.8037 64.9248V65H12.2192ZM21.1299 60.8911V61.2939C21.1299 61.8848 21.0511 62.4165 20.8936 62.8892C20.736 63.3582 20.5122 63.7575 20.2222 64.0869C19.9321 64.4163 19.5866 64.6688 19.1855 64.8442C18.7845 65.0197 18.3387 65.1074 17.8481 65.1074C17.3647 65.1074 16.9207 65.0197 16.5161 64.8442C16.1151 64.6688 15.7677 64.4163 15.4741 64.0869C15.1805 63.7575 14.9531 63.3582 14.792 62.8892C14.6309 62.4165 14.5503 61.8848 14.5503 61.2939V60.8911C14.5503 60.2967 14.6309 59.765 14.792 59.2959C14.9531 58.8268 15.1787 58.4276 15.4688 58.0981C15.7588 57.7651 16.1043 57.5109 16.5054 57.3354C16.91 57.16 17.354 57.0723 17.8374 57.0723C18.328 57.0723 18.7738 57.16 19.1748 57.3354C19.5758 57.5109 19.9214 57.7651 20.2114 58.0981C20.505 58.4276 20.7306 58.8268 20.8882 59.2959C21.0493 59.765 21.1299 60.2967 21.1299 60.8911ZM19.6367 61.2939V60.8804C19.6367 60.4543 19.5973 60.0801 19.5186 59.7578C19.4398 59.432 19.3234 59.158 19.1694 58.936C19.0155 58.714 18.8257 58.5475 18.6001 58.4365C18.3745 58.3219 18.1203 58.2646 17.8374 58.2646C17.5509 58.2646 17.2967 58.3219 17.0747 58.4365C16.8563 58.5475 16.6701 58.714 16.5161 58.936C16.3621 59.158 16.244 59.432 16.1616 59.7578C16.0828 60.0801 16.0435 60.4543 16.0435 60.8804V61.2939C16.0435 61.7165 16.0828 62.0907 16.1616 62.4165C16.244 62.7424 16.3621 63.0181 16.5161 63.2437C16.6737 63.4657 16.8634 63.634 17.0854 63.7485C17.3075 63.8631 17.5617 63.9204 17.8481 63.9204C18.1346 63.9204 18.3888 63.8631 18.6108 63.7485C18.8328 63.634 19.019 63.4657 19.1694 63.2437C19.3234 63.0181 19.4398 62.7424 19.5186 62.4165C19.5973 62.0907 19.6367 61.7165 19.6367 61.2939ZM24.7178 65H23.0312L23.042 63.8398H24.7178C25.1725 63.8398 25.5539 63.7396 25.8618 63.5391C26.1698 63.335 26.4025 63.0431 26.5601 62.6636C26.7176 62.2804 26.7964 61.8221 26.7964 61.2886V60.8857C26.7964 60.474 26.7516 60.1105 26.6621 59.7954C26.5726 59.4803 26.4401 59.2153 26.2646 59.0005C26.0928 58.7856 25.8797 58.6227 25.6255 58.5117C25.3713 58.4007 25.0794 58.3452 24.75 58.3452H22.999V57.1797H24.75C25.2728 57.1797 25.749 57.2674 26.1787 57.4429C26.612 57.6183 26.9862 57.8708 27.3013 58.2002C27.62 58.526 27.8634 58.9163 28.0317 59.3711C28.2036 59.8258 28.2896 60.3343 28.2896 60.8965V61.2886C28.2896 61.8472 28.2036 62.3556 28.0317 62.814C27.8634 63.2687 27.62 63.659 27.3013 63.9849C26.9862 64.3107 26.6102 64.5614 26.1733 64.7368C25.7365 64.9123 25.2513 65 24.7178 65ZM23.8584 57.1797V65H22.3813V57.1797H23.8584ZM33.897 57.1797H35.374V62.3735C35.374 62.9715 35.2451 63.4746 34.9873 63.8828C34.7295 64.2874 34.3786 64.5936 33.9346 64.8013C33.4906 65.0054 32.9857 65.1074 32.4199 65.1074C31.847 65.1074 31.3368 65.0054 30.8892 64.8013C30.4416 64.5936 30.0907 64.2874 29.8364 63.8828C29.5822 63.4746 29.4551 62.9715 29.4551 62.3735V57.1797H30.9321V62.3735C30.9321 62.7388 30.993 63.0378 31.1147 63.2705C31.2365 63.4997 31.4084 63.6698 31.6304 63.7808C31.8524 63.8918 32.1156 63.9473 32.4199 63.9473C32.7279 63.9473 32.991 63.8918 33.2095 63.7808C33.4315 63.6698 33.6016 63.4997 33.7197 63.2705C33.8379 63.0378 33.897 62.7388 33.897 62.3735V57.1797ZM38.3496 57.1797V65H36.8726V57.1797H38.3496ZM43.1406 57.1797V65H41.6689V57.1797H43.1406ZM45.5684 57.1797V58.3452H39.2681V57.1797H45.5684ZM50.5581 62.9697C50.5581 62.8193 50.5348 62.6851 50.4883 62.5669C50.4453 62.4451 50.3647 62.3359 50.2466 62.2393C50.132 62.139 49.9691 62.0423 49.7578 61.9492C49.5501 61.8525 49.2816 61.7523 48.9521 61.6484C48.5869 61.5339 48.2467 61.4049 47.9316 61.2617C47.6165 61.1185 47.339 60.952 47.0991 60.7622C46.8628 60.5724 46.6784 60.354 46.5459 60.1069C46.4134 59.8563 46.3472 59.5662 46.3472 59.2368C46.3472 58.9146 46.4152 58.6209 46.5513 58.356C46.6909 58.091 46.8879 57.8636 47.1421 57.6738C47.3963 57.4805 47.6953 57.3319 48.0391 57.228C48.3864 57.1242 48.7695 57.0723 49.1885 57.0723C49.7686 57.0723 50.2699 57.1779 50.6924 57.3892C51.1185 57.6004 51.4479 57.8869 51.6807 58.2485C51.9134 58.6102 52.0298 59.0166 52.0298 59.4678H50.5581C50.5581 59.2243 50.5062 59.0094 50.4023 58.8232C50.3021 58.637 50.1481 58.4902 49.9404 58.3828C49.7363 58.2754 49.4785 58.2217 49.167 58.2217C48.8662 58.2217 48.6156 58.2664 48.415 58.356C48.2181 58.4455 48.0695 58.5672 47.9692 58.7212C47.8726 58.8752 47.8242 59.047 47.8242 59.2368C47.8242 59.38 47.8582 59.509 47.9263 59.6235C47.9943 59.7345 48.0964 59.8402 48.2324 59.9404C48.3685 60.0371 48.5368 60.1284 48.7373 60.2144C48.9414 60.2967 49.1777 60.3791 49.4463 60.4614C49.876 60.5903 50.252 60.7336 50.5742 60.8911C50.9001 61.0487 51.1704 61.2277 51.3853 61.4282C51.6037 61.6287 51.7666 61.8543 51.874 62.105C51.985 62.3556 52.0405 62.6403 52.0405 62.959C52.0405 63.2956 51.9743 63.5964 51.8418 63.8613C51.7093 64.1263 51.5195 64.3519 51.2725 64.5381C51.0254 64.7243 50.7282 64.8657 50.3809 64.9624C50.0371 65.0591 49.6522 65.1074 49.2261 65.1074C48.8465 65.1074 48.4705 65.0573 48.0981 64.957C47.7293 64.8532 47.3945 64.6992 47.0938 64.4951C46.793 64.2874 46.5531 64.026 46.374 63.7109C46.195 63.3923 46.1055 63.0199 46.1055 62.5938H47.5879C47.5879 62.8408 47.6273 63.0521 47.7061 63.2275C47.7884 63.3994 47.903 63.5409 48.0498 63.6519C48.2002 63.7593 48.3757 63.8381 48.5762 63.8882C48.7767 63.9383 48.9933 63.9634 49.2261 63.9634C49.5269 63.9634 49.7739 63.9222 49.9673 63.8398C50.1642 63.7539 50.311 63.6357 50.4077 63.4854C50.508 63.335 50.5581 63.1631 50.5581 62.9697Z" fill="black"/>
</svg>
