<svg width="51" height="67" viewBox="0 0 51 67" fill="none" xmlns="http://www.w3.org/2000/svg">
<path d="M14.875 46.7512C13.7063 46.7512 12.7061 46.3354 11.8745 45.5038C11.0429 44.6723 10.6264 43.6714 10.625 42.5012C10.6236 41.3311 11.0401 40.3309 11.8745 39.5007C12.7089 38.6706 13.7091 38.2541 14.875 38.2512C16.0409 38.2484 17.0418 38.6649 17.8776 39.5007C18.7135 40.3366 19.1293 41.3367 19.125 42.5012C19.1208 43.6657 18.705 44.6666 17.8776 45.5038C17.0503 46.3411 16.0494 46.7569 14.875 46.7512ZM36.125 46.7512C34.9563 46.7512 33.9561 46.3354 33.1245 45.5038C32.2929 44.6723 31.8764 43.6714 31.875 42.5012C31.8736 41.3311 32.2901 40.3309 33.1245 39.5007C33.9589 38.6706 34.9591 38.2541 36.125 38.2512C37.2909 38.2484 38.2918 38.6649 39.1276 39.5007C39.9635 40.3366 40.3793 41.3367 40.375 42.5012C40.3708 43.6657 39.955 44.6666 39.1276 45.5038C38.3003 46.3411 37.2994 46.7569 36.125 46.7512ZM13.0688 12.7512L18.1688 23.3762H33.0438L38.8875 12.7512H13.0688ZM11.05 8.50122H42.3938C43.2083 8.50122 43.8281 8.8646 44.2531 9.59135C44.6781 10.3181 44.6958 11.0526 44.3063 11.795L36.7625 25.395C36.3729 26.1033 35.8509 26.6523 35.1964 27.0418C34.5419 27.4314 33.8243 27.6262 33.0438 27.6262H17.2125L14.875 31.8762H38.25C38.8521 31.8762 39.3571 32.0802 39.7651 32.4882C40.1731 32.8962 40.3764 33.4006 40.375 34.0012C40.3736 34.6019 40.1696 35.1069 39.763 35.5163C39.3564 35.9258 38.8521 36.1291 38.25 36.1262H14.875C13.2813 36.1262 12.0771 35.4271 11.2625 34.0288C10.4479 32.6306 10.4125 31.2401 11.1563 29.8575L14.025 24.6512L6.37501 8.50122H4.25001C3.64792 8.50122 3.14359 8.29722 2.73701 7.88922C2.33042 7.48122 2.12642 6.97689 2.12501 6.37622C2.12359 5.77555 2.32759 5.27122 2.73701 4.86322C3.14642 4.45522 3.65076 4.25122 4.25001 4.25122H7.70313C8.09271 4.25122 8.46459 4.35747 8.81876 4.56997C9.17292 4.78247 9.43855 5.08351 9.61563 5.4731L11.05 8.50122Z" fill="black"/>
<path d="M8.49658 62.4692L10.4463 56.1797H12.0845L9.32373 64H8.2334L8.49658 62.4692ZM6.69727 56.1797L8.63623 62.4692L8.91553 64H7.81445L5.06445 56.1797H6.69727ZM18.0732 62.8398V64H13.916V62.8398H18.0732ZM14.3672 56.1797V64H12.8901V56.1797H14.3672ZM17.5308 59.4077V60.541H13.916V59.4077H17.5308ZM18.0571 56.1797V57.3452H13.916V56.1797H18.0571ZM25.3833 56.1797V64H23.9009L20.5762 58.5752V64H19.0991V56.1797H20.5762L23.9116 61.6099V56.1797H25.3833ZM30.083 56.1797V64H28.6113V56.1797H30.083ZM32.5107 56.1797V57.3452H26.2104V56.1797H32.5107ZM38.6768 62.8398V64H34.5195V62.8398H38.6768ZM34.9707 56.1797V64H33.4937V56.1797H34.9707ZM38.1343 59.4077V60.541H34.5195V59.4077H38.1343ZM38.6606 56.1797V57.3452H34.5195V56.1797H38.6606ZM43.7954 61.9697C43.7954 61.8193 43.7721 61.6851 43.7256 61.5669C43.6826 61.4451 43.6021 61.3359 43.4839 61.2393C43.3693 61.139 43.2064 61.0423 42.9951 60.9492C42.7874 60.8525 42.5189 60.7523 42.1895 60.6484C41.8242 60.5339 41.484 60.4049 41.1689 60.2617C40.8538 60.1185 40.5763 59.952 40.3364 59.7622C40.1001 59.5724 39.9157 59.354 39.7832 59.1069C39.6507 58.8563 39.5845 58.5662 39.5845 58.2368C39.5845 57.9146 39.6525 57.6209 39.7886 57.356C39.9282 57.091 40.1252 56.8636 40.3794 56.6738C40.6336 56.4805 40.9326 56.3319 41.2764 56.228C41.6237 56.1242 42.0068 56.0723 42.4258 56.0723C43.0059 56.0723 43.5072 56.1779 43.9297 56.3892C44.3558 56.6004 44.6852 56.8869 44.918 57.2485C45.1507 57.6102 45.2671 58.0166 45.2671 58.4678H43.7954C43.7954 58.2243 43.7435 58.0094 43.6396 57.8232C43.5394 57.637 43.3854 57.4902 43.1777 57.3828C42.9736 57.2754 42.7158 57.2217 42.4043 57.2217C42.1035 57.2217 41.8529 57.2664 41.6523 57.356C41.4554 57.4455 41.3068 57.5672 41.2065 57.7212C41.1099 57.8752 41.0615 58.047 41.0615 58.2368C41.0615 58.38 41.0955 58.509 41.1636 58.6235C41.2316 58.7345 41.3337 58.8402 41.4697 58.9404C41.6058 59.0371 41.7741 59.1284 41.9746 59.2144C42.1787 59.2967 42.415 59.3791 42.6836 59.4614C43.1133 59.5903 43.4893 59.7336 43.8115 59.8911C44.1374 60.0487 44.4077 60.2277 44.6226 60.4282C44.841 60.6287 45.0039 60.8543 45.1113 61.105C45.2223 61.3556 45.2778 61.6403 45.2778 61.959C45.2778 62.2956 45.2116 62.5964 45.0791 62.8613C44.9466 63.1263 44.7568 63.3519 44.5098 63.5381C44.2627 63.7243 43.9655 63.8657 43.6182 63.9624C43.2744 64.0591 42.8895 64.1074 42.4634 64.1074C42.0838 64.1074 41.7078 64.0573 41.3354 63.957C40.9666 63.8532 40.6318 63.6992 40.3311 63.4951C40.0303 63.2874 39.7904 63.026 39.6113 62.7109C39.4323 62.3923 39.3428 62.0199 39.3428 61.5938H40.8252C40.8252 61.8408 40.8646 62.0521 40.9434 62.2275C41.0257 62.3994 41.1403 62.5409 41.2871 62.6519C41.4375 62.7593 41.613 62.8381 41.8135 62.8882C42.014 62.9383 42.2306 62.9634 42.4634 62.9634C42.7642 62.9634 43.0112 62.9222 43.2046 62.8398C43.4015 62.7539 43.5483 62.6357 43.645 62.4854C43.7453 62.335 43.7954 62.1631 43.7954 61.9697Z" fill="black"/>
</svg>
